<mxfile host="65bd71144e">
    <diagram id="3_rT1S0TjLDmsWgdfQpS" name="第 1 页">
        <mxGraphModel dx="292" dy="179" grid="1" gridSize="10" guides="1" tooltips="1" connect="1" arrows="1" fold="1" page="1" pageScale="1" pageWidth="1600" pageHeight="1200" background="none" math="0" shadow="0" adaptiveColors="simple">
            <root>
                <mxCell id="0"/>
                <mxCell id="1" parent="0"/>
                <mxCell id="4" style="edgeStyle=none;html=1;exitX=1;exitY=0.5;exitDx=0;exitDy=0;entryX=0;entryY=0.5;entryDx=0;entryDy=0;rounded=1;shadow=0;glass=0;align=center;verticalAlign=middle;fontFamily=Helvetica;fontSize=12;fontColor=#000000;fillColor=#999999;strokeColor=#FFCC99;" edge="1" parent="1" source="2" target="3">
                    <mxGeometry relative="1" as="geometry"/>
                </mxCell>
                <UserObject label="234" link="vscode://file/.gitignore" linkTarget="_blank" id="2">
                    <mxCell style="rounded=1;whiteSpace=wrap;html=1;glass=0;shadow=0;fillColor=#999999;strokeColor=none;fontColor=#000000;" parent="1" vertex="1">
                        <mxGeometry x="40" y="40" width="120" height="60" as="geometry"/>
                    </mxCell>
                </UserObject>
                <mxCell id="3" value="" style="rounded=1;whiteSpace=wrap;html=1;fillColor=#999999;strokeColor=none;shadow=0;glass=0;align=center;verticalAlign=middle;fontFamily=Helvetica;fontSize=12;fontColor=#000000;" parent="1" vertex="1">
                    <mxGeometry x="220" y="40" width="120" height="60" as="geometry"/>
                </mxCell>
            </root>
        </mxGraphModel>
    </diagram>
</mxfile>